
        <svg xmlns="http://www.w3.org/2000/svg" xmlns:xlink="http://www.w3.org/1999/xlink" version="1.1" width="3187.5" 
        height="933.6150603932927" viewBox="0 0 3187.5 933.6150603932927">
			
			<g transform="scale(9.375) translate(10, 10)">
				<defs id="SvgjsDefs1401"></defs><g id="SvgjsG1402" featureKey="symbolFeature-0" transform="matrix(329.37758117422374,0,0,329.37758117422374,-7.171555028141131,-12.378956229881664)" fill="#5e63b6"><defs xmlns="http://www.w3.org/2000/svg"></defs><g xmlns="http://www.w3.org/2000/svg"><path class="fil0" d="M0.11878 0.263921c-0.0187008,-0.00100787 -0.0193622,0.00835039 -0.0283701,0.0120039 -0.0459409,0.0186417 -0.0473386,-0.0469724 0.011248,-0.0748976 0.0393543,-0.0209213 0.108008,0.0678031 0.017122,0.0628937z" style="fill: #9A6AF9"></path><ellipse class="fil0" transform="matrix(-1.11204 0.455521 0.281427 0.914478 0.143989 0.174019)" rx="0.0161417" ry="0.0208661" style="fill: #9A6AF9"></ellipse><ellipse class="fil0" transform="matrix(-0.853403 0.214563 0.214563 0.853403 0.093622 0.176811)" rx="0.0161417" ry="0.0208661" style="fill: #9A6AF9"></ellipse><ellipse class="fil0" transform="matrix(-0.680786 0.315521 0.315521 0.680786 0.0567357 0.201317)" rx="0.0161417" ry="0.0208661" style="fill: #9A6AF9"></ellipse><ellipse class="fil0" transform="matrix(-0.540506 0.349134 0.349134 0.540506 0.0377828 0.238215)" rx="0.0161417" ry="0.0208661" style="fill: #9A6AF9"></ellipse><path class="fil0" d="M0.229039 0.153122c0.0186811,-0.00140157 0.0195315,0.00794094 0.0286181,0.0114094 0.0463189,0.0176811 0.0463465,-0.0479488 -0.0128071,-0.0746457 -0.0397756,-0.0200984 -0.106575,0.0700315 -0.015811,0.0632362z" style="fill: #9A6AF9"></path><ellipse class="fil0" transform="matrix(1.12127 0.4323 -0.262351 0.920132 0.201968 0.0637605)" rx="0.0161417" ry="0.0208661" style="fill: #9A6AF9"></ellipse><ellipse class="fil0" transform="matrix(0.85768 0.196772 -0.196772 0.85768 0.252383 0.0655044)" rx="0.0161417" ry="0.0208661" style="fill: #9A6AF9"></ellipse><ellipse class="fil0" transform="matrix(0.6872 0.301298 -0.301298 0.6872 0.289771 0.0892386)" rx="0.0161417" ry="0.0208661" style="fill: #9A6AF9"></ellipse><ellipse class="fil0" transform="matrix(0.547649 0.33782 -0.33782 0.547649 0.309487 0.125734)" rx="0.0161417" ry="0.0208661" style="fill: #9A6AF9"></ellipse></g></g><g id="SvgjsG1403" featureKey="nameFeature-0" transform="matrix(1.562500093132263,0,0,1.562500093132263,115.12499951571223,-6.500002235174314)" fill="#9A6AF9"><path d="M5.84 40 l-2.72 0 l0 -28.8 l10.52 0 c7.48 0 9.4 3.72 9.4 8.04 c0 6.44 -5.72 8.04 -11.04 8.04 l-6.16 0 l0 12.72 z M5.84 24.96 l6.24 0 c5.08 0 8.24 -1.04 8.24 -5.92 c0 -3.6 -2.32 -5.52 -7.44 -5.52 l-7.04 0 l0 11.44 z M28.8 28.2 l13.52 0 c0 -4.04 -2.24 -7.32 -6.56 -7.32 c-4.24 0 -6.48 3.4 -6.96 7.32 z M44.88 30.2 l-16.08 0 c-0.04 4.48 2.36 8.2 6.96 8.2 c3.12 0 5.56 -1.72 6.28 -4.76 l2.68 0 c-1.2 3.92 -3.68 6.92 -8.96 6.92 c-6.64 0 -9.52 -4.72 -9.52 -10.84 c0 -6.04 3.6 -11 9.52 -11 c5.68 0 9.16 4.04 9.12 11.48 z M56.84 38.12 l0 1.96 c-0.56 0.12 -1.6 0.48 -2.76 0.48 c-2.36 0 -3.68 -1.04 -3.68 -4.12 l0 -15.16 l-2.92 0 l0 -2 l2.92 0 l0 -5.76 l2.4 0 l0 5.76 l3.88 0 l0 2 l-3.88 0 l0 14.2 c0 2.04 0.08 2.92 2.08 2.92 c0.64 0 1.32 -0.12 1.96 -0.28 z M61.20000000000001 40 l-2.8 0 l11.32 -28.8 l3.08 0 l11.04 28.8 l-2.8 0 l-3.32 -9.04 l-13.12 0 z M71.16000000000001 13.52 l-5.64 15.12 l11.28 0 z M90.04000000000002 29.72 c0 4.68 2.64 8.68 7 8.68 c4.96 0 7.28 -4.2 7.08 -9.4 c-0.04 -5.2 -3.04 -8.12 -7.08 -8.12 c-4.52 0 -7 3.84 -7 8.84 z M90.04000000000002 36.68 l0 11.48 l-2.4 0 l0 -28.88 l2.4 0 l0 3.64 l0.08 0 c1.4 -2.72 4.56 -4.2 7.2 -4.2 c6.68 0 9.36 4.76 9.36 10.88 c0 5.8 -2.92 10.96 -9.24 10.96 c-2.92 0 -5.88 -1.36 -7.4 -3.88 z M114.48000000000002 29.72 c0 4.68 2.64 8.68 7 8.68 c4.96 0 7.28 -4.2 7.08 -9.4 c-0.04 -5.2 -3.04 -8.12 -7.08 -8.12 c-4.52 0 -7 3.84 -7 8.84 z M114.48000000000002 36.68 l0 11.48 l-2.4 0 l0 -28.88 l2.4 0 l0 3.64 l0.08 0 c1.4 -2.72 4.56 -4.2 7.2 -4.2 c6.68 0 9.36 4.76 9.36 10.88 c0 5.8 -2.92 10.96 -9.24 10.96 c-2.92 0 -5.88 -1.36 -7.4 -3.88 z"></path></g>
			</g>
		</svg>
	